<!--?xml version="1.0" standalone="no"?-->
              <svg id="sw-js-blob-svg" viewBox="0 0 100 100" xmlns="http://www.w3.org/2000/svg" version="1.1">
                    <defs> 
                        <linearGradient id="sw-gradient" x1="0" x2="1" y1="1" y2="0">
                            <stop id="stop1" stop-color="rgba(248, 117, 55, 1)" offset="0%"></stop>
                            <stop id="stop2" stop-color="rgba(251, 168, 31, 1)" offset="100%"></stop>
                        </linearGradient>
                    </defs>
                <path fill="url(#sw-gradient)" d="M21,-35.9C27.8,-32.4,34.4,-28,39,-21.9C43.7,-15.7,46.5,-7.9,45.6,-0.5C44.6,6.8,39.9,13.6,35.9,20.8C31.8,28,28.4,35.6,22.5,40.2C16.7,44.7,8.3,46.2,0.3,45.7C-7.8,45.2,-15.6,42.9,-22.3,38.8C-29,34.8,-34.7,29,-37.3,22.3C-40,15.5,-39.6,7.8,-39.2,0.2C-38.8,-7.3,-38.5,-14.7,-35.8,-21.4C-33.2,-28.1,-28.2,-34.1,-21.8,-37.8C-15.5,-41.5,-7.7,-42.9,-0.3,-42.3C7.1,-41.8,14.2,-39.3,21,-35.9Z" width="100%" height="100%" transform="translate(50 50)" stroke-width="0" style="transition: all 0.3s ease 0s;"></path>
              </svg>